<svg width="1600" height="1200" viewBox="0 0 1600 1200" fill="none" xmlns="http://www.w3.org/2000/svg">
  <rect width="1600" height="1200" fill="#121212"/>
  <defs>
    <radialGradient id="bgGlow" cx="0" cy="0" r="1" gradientUnits="userSpaceOnUse" gradientTransform="translate(1150 280) rotate(140) scale(700 540)">
      <stop offset="0" stop-color="#D8EC63" stop-opacity="0.35"/>
      <stop offset="1" stop-color="#D8EC63" stop-opacity="0"/>
    </radialGradient>
    <linearGradient id="screen" x1="0" y1="0" x2="1" y2="1">
      <stop offset="0" stop-color="#F8FCFB"/>
      <stop offset="1" stop-color="#EDF6F5"/>
    </linearGradient>
    <linearGradient id="chart" x1="0" y1="1" x2="0" y2="0">
      <stop offset="0" stop-color="#8FBFBD"/>
      <stop offset="1" stop-color="#5E8F8E"/>
    </linearGradient>
  </defs>

  <rect width="1600" height="1200" fill="url(#bgGlow)"/>

  <g transform="translate(210 270) rotate(-6 600 340)">
    <rect x="120" y="160" width="980" height="560" rx="28" fill="#0C0D10"/>
    <rect x="148" y="188" width="924" height="500" rx="18" fill="url(#screen)"/>

    <rect x="188" y="232" width="340" height="190" rx="16" fill="#FFFFFF" stroke="#D7E6E5"/>
    <rect x="560" y="232" width="230" height="88" rx="14" fill="#1B1F22"/>
    <rect x="816" y="232" width="230" height="88" rx="14" fill="#1B1F22"/>

    <rect x="202" y="388" width="18" height="22" rx="5" fill="url(#chart)"/>
    <rect x="226" y="370" width="18" height="40" rx="5" fill="url(#chart)"/>
    <rect x="250" y="352" width="18" height="58" rx="5" fill="url(#chart)"/>
    <rect x="274" y="336" width="18" height="74" rx="5" fill="url(#chart)"/>
    <rect x="298" y="322" width="18" height="88" rx="5" fill="url(#chart)"/>
    <rect x="322" y="306" width="18" height="104" rx="5" fill="url(#chart)"/>
    <rect x="346" y="294" width="18" height="116" rx="5" fill="#D8EC63"/>
    <rect x="370" y="286" width="18" height="124" rx="5" fill="#D8EC63"/>
    <rect x="394" y="300" width="18" height="110" rx="5" fill="url(#chart)"/>
    <rect x="418" y="320" width="18" height="90" rx="5" fill="url(#chart)"/>

    <rect x="188" y="452" width="420" height="210" rx="16" fill="#FFFFFF" stroke="#D7E6E5"/>
    <rect x="630" y="452" width="416" height="210" rx="16" fill="#FFFFFF" stroke="#D7E6E5"/>

    <circle cx="608" cy="438" r="8" fill="#D8EC63"/>
    <rect x="560" y="260" width="110" height="16" rx="8" fill="#D8EC63" fill-opacity="0.75"/>
    <rect x="816" y="260" width="110" height="16" rx="8" fill="#8FBFBD" fill-opacity="0.8"/>

    <rect x="20" y="720" width="1180" height="56" rx="24" fill="#666B74"/>
    <rect x="150" y="730" width="920" height="34" rx="14" fill="#4A4F59"/>
  </g>
</svg>
