<svg width="1600" height="1200" viewBox="0 0 1600 1200" fill="none" xmlns="http://www.w3.org/2000/svg">
  <rect width="1600" height="1200" fill="#F6FAFA"/>
  <defs>
    <radialGradient id="gA" cx="0" cy="0" r="1" gradientUnits="userSpaceOnUse" gradientTransform="translate(360 210) rotate(22) scale(760 620)">
      <stop offset="0" stop-color="#D8EC63" stop-opacity="0.26"/>
      <stop offset="1" stop-color="#D8EC63" stop-opacity="0"/>
    </radialGradient>
    <linearGradient id="screenA" x1="0" y1="0" x2="1" y2="1">
      <stop offset="0" stop-color="#FFFFFF"/>
      <stop offset="1" stop-color="#F1F8F7"/>
    </linearGradient>
    <linearGradient id="accentA" x1="0" y1="0" x2="1" y2="1">
      <stop offset="0" stop-color="#8FBFBD"/>
      <stop offset="1" stop-color="#6E9F9D"/>
    </linearGradient>
  </defs>

  <rect width="1600" height="1200" fill="url(#gA)"/>

  <g transform="translate(240 260) rotate(4 560 350)">
    <rect x="90" y="150" width="980" height="560" rx="30" fill="#0D0E11"/>
    <rect x="118" y="178" width="924" height="504" rx="18" fill="url(#screenA)"/>

    <rect x="154" y="220" width="430" height="240" rx="16" fill="#FFFFFF" stroke="#DBE9E8"/>
    <rect x="610" y="220" width="188" height="112" rx="14" fill="#FFFFFF" stroke="#DBE9E8"/>
    <rect x="816" y="220" width="198" height="240" rx="16" fill="#FFFFFF" stroke="#DBE9E8"/>

    <rect x="184" y="388" width="16" height="48" rx="4" fill="url(#accentA)"/>
    <rect x="206" y="370" width="16" height="66" rx="4" fill="url(#accentA)"/>
    <rect x="228" y="350" width="16" height="86" rx="4" fill="url(#accentA)"/>
    <rect x="250" y="334" width="16" height="102" rx="4" fill="#D8EC63"/>
    <rect x="272" y="316" width="16" height="120" rx="4" fill="#D8EC63"/>
    <rect x="294" y="300" width="16" height="136" rx="4" fill="url(#accentA)"/>
    <rect x="316" y="312" width="16" height="124" rx="4" fill="url(#accentA)"/>
    <rect x="338" y="330" width="16" height="106" rx="4" fill="url(#accentA)"/>
    <rect x="360" y="346" width="16" height="90" rx="4" fill="url(#accentA)"/>

    <rect x="154" y="486" width="860" height="170" rx="16" fill="#FFFFFF" stroke="#DBE9E8"/>
    <rect x="182" y="514" width="280" height="18" rx="9" fill="#8FBFBD" fill-opacity="0.28"/>
    <rect x="182" y="544" width="420" height="14" rx="7" fill="#8FBFBD" fill-opacity="0.18"/>
    <rect x="182" y="568" width="360" height="14" rx="7" fill="#8FBFBD" fill-opacity="0.18"/>
    <rect x="730" y="520" width="250" height="110" rx="14" fill="#F8FCF4" stroke="#D8EC63"/>

    <rect x="130" y="710" width="900" height="52" rx="24" fill="#A5ADB7"/>
    <rect x="320" y="720" width="520" height="30" rx="14" fill="#8A939D"/>
  </g>
</svg>
