<svg width="1600" height="1200" viewBox="0 0 1600 1200" fill="none" xmlns="http://www.w3.org/2000/svg">
  <rect width="1600" height="1200" fill="#0E1214"/>
  <defs>
    <radialGradient id="g1" cx="0" cy="0" r="1" gradientUnits="userSpaceOnUse" gradientTransform="translate(1180 240) rotate(132) scale(620 560)">
      <stop offset="0" stop-color="#D8EC63" stop-opacity="0.52"/>
      <stop offset="1" stop-color="#D8EC63" stop-opacity="0"/>
    </radialGradient>
    <radialGradient id="g2" cx="0" cy="0" r="1" gradientUnits="userSpaceOnUse" gradientTransform="translate(420 980) rotate(-35) scale(760 540)">
      <stop offset="0" stop-color="#78AFAE" stop-opacity="0.36"/>
      <stop offset="1" stop-color="#78AFAE" stop-opacity="0"/>
    </radialGradient>
    <linearGradient id="line" x1="260" y1="760" x2="1320" y2="760" gradientUnits="userSpaceOnUse">
      <stop stop-color="#D8EC63" stop-opacity="0.15"/>
      <stop offset="1" stop-color="#D8EC63" stop-opacity="0.85"/>
    </linearGradient>
  </defs>

  <rect width="1600" height="1200" fill="url(#g1)"/>
  <rect width="1600" height="1200" fill="url(#g2)"/>

  <g opacity="0.22" stroke="#FFFFFF">
    <circle cx="800" cy="600" r="390"/>
    <circle cx="800" cy="600" r="300"/>
    <circle cx="800" cy="600" r="210"/>
  </g>

  <g opacity="0.9">
    <rect x="280" y="740" width="130" height="20" rx="10" fill="#FFFFFF" fill-opacity="0.35"/>
    <rect x="430" y="700" width="130" height="60" rx="12" fill="#FFFFFF" fill-opacity="0.42"/>
    <rect x="580" y="660" width="130" height="100" rx="12" fill="#FFFFFF" fill-opacity="0.5"/>
    <rect x="730" y="600" width="130" height="160" rx="12" fill="#D8EC63" fill-opacity="0.95"/>
    <rect x="880" y="640" width="130" height="120" rx="12" fill="#FFFFFF" fill-opacity="0.52"/>
    <rect x="1030" y="700" width="130" height="60" rx="12" fill="#FFFFFF" fill-opacity="0.44"/>
    <rect x="1180" y="740" width="130" height="20" rx="10" fill="#FFFFFF" fill-opacity="0.35"/>
  </g>

  <line x1="260" y1="760" x2="1320" y2="760" stroke="url(#line)" stroke-width="2"/>

  <g opacity="0.75" fill="#FFFFFF">
    <circle cx="330" cy="300" r="3"/>
    <circle cx="390" cy="330" r="2"/>
    <circle cx="1240" cy="350" r="3"/>
    <circle cx="1290" cy="390" r="2"/>
  </g>
</svg>
